# xmcd CD database file
#
# Track frame offsets:
#	150
#	23520
#	37192
#	56680
#	72557
#	90855
#	113270
#	133425
#	150107
#	169725
#	185050
#	208507
#	225675
#
# Disc length: 3273 seconds
#
# Revision: 12
# Processed by: cddbd v1.5.2PL0 Copyright (c) Steve Scherf et al.
# Submitted via: CDex 1.70beta3
#
DISCID=a60cc70d
DTITLE=スピッツ - 花鳥風月
DYEAR=1999
DGENRE=Rock
TTITLE0=流れ星
TTITLE1=愛のしるし
TTITLE2=スピカ
TTITLE3=旅人
TTITLE4=俺のすべて
TTITLE5=猫になりたい
TTITLE6=心の底から
TTITLE7=マーメイド
TTITLE8=コスモス
TTITLE9=野生のチューリップ
TTITLE10=鳥になって
TTITLE11=おっぱい
TTITLE12=トゲトゲの木
EXTD=YEAR: 1999
EXTT0=
EXTT1=
EXTT2=
EXTT3=
EXTT4=
EXTT5=
EXTT6=
EXTT7=
EXTT8=
EXTT9=
EXTT10=
EXTT11=
EXTT12=
PLAYORDER=
